<?xml version="1.0" encoding="utf-8"?>
<!-- Generator: Adobe Illustrator 17.1.0, SVG Export Plug-In . SVG Version: 6.00 Build 0)  -->
<!DOCTYPE svg PUBLIC "-//W3C//DTD SVG 1.1//EN" "http://www.w3.org/Graphics/SVG/1.1/DTD/svg11.dtd">
<svg version="1.1" id="Capa_1" xmlns="http://www.w3.org/2000/svg" xmlns:xlink="http://www.w3.org/1999/xlink" x="0px" y="0px"
	 viewBox="0 0 351.6 65.3" enable-background="new 0 0 351.6 65.3" xml:space="preserve">
<g>
	<g>
		<g>
			<path fill="#17202B" d="M10.7,27c0,2.8,0,5.1,0.1,6.4c0.1,0.8,0.3,1.5,1.1,1.6c0.4,0.1,1.1,0.1,1.3,0.1c0.2,0,0.2,0.1,0.2,0.2
				c0,0.1-0.1,0.2-0.5,0.2c-1.6,0-3.5-0.1-3.6-0.1s-2,0.1-2.9,0.1c-0.3,0-0.5-0.1-0.5-0.2c0-0.1,0.1-0.2,0.2-0.2
				c0.3,0,0.6-0.1,0.9-0.1c0.6-0.1,0.7-0.8,0.8-1.6c0.1-1.2,0.1-3.5,0.1-6.4V14.6c-1.4,0-2.9,0-4.3,0.1c-1.8,0-2.5,0.2-3,0.9
				c-0.3,0.5-0.4,0.7-0.5,0.9c-0.1,0.2-0.2,0.3-0.3,0.3c-0.1,0-0.1-0.1-0.1-0.3c0-0.3,0.6-2.8,0.6-3c0.1-0.2,0.2-0.6,0.3-0.6
				c0.2,0,0.5,0.3,1.3,0.4c0.8,0.1,2,0.1,2.3,0.1h11c0.9,0,1.6-0.1,2.1-0.1c0.4-0.1,0.7-0.1,0.8-0.1c0.1,0,0.1,0.2,0.1,0.4
				c0,0.9-0.1,2.9-0.1,3.2c0,0.3-0.1,0.4-0.2,0.4c-0.1,0-0.2-0.1-0.2-0.5c0-0.1,0-0.2,0-0.3c-0.1-0.9-0.8-1.6-3.6-1.6
				c-1.2,0-2.5,0-3.7-0.1V27z"/>
		</g>
		<g>
			<path fill="#17202B" d="M28,25.9c0,4.2,0.9,6,2.2,7.2c1.4,1.3,2.8,1.6,4.4,1.6c1.8,0,3.5-0.8,4.6-2.1c1.3-1.7,1.7-4.2,1.7-7.2
				v-3.7c0-4.6,0-5.4-0.1-6.3c-0.1-1-0.3-1.5-1.3-1.7c-0.2-0.1-0.7-0.1-1-0.1c-0.1,0-0.2-0.1-0.2-0.2c0-0.2,0.1-0.2,0.5-0.2
				c1.3,0,2.9,0.1,3.1,0.1c0.2,0,1.6-0.1,2.5-0.1c0.3,0,0.5,0.1,0.5,0.2c0,0.1-0.1,0.2-0.2,0.2c-0.2,0-0.4,0-0.7,0.1
				c-0.8,0.2-1,0.6-1.1,1.7c-0.1,0.9-0.1,1.8-0.1,6.3V25c0,3.2-0.4,6.7-2.7,8.8c-2.1,1.9-4.3,2.2-6,2.2c-1,0-4-0.1-6-2.1
				c-1.4-1.4-2.5-3.4-2.5-7.7v-4.3c0-4.6,0-5.4-0.1-6.3c-0.1-1-0.3-1.5-1.3-1.7c-0.2-0.1-0.7-0.1-1-0.1c-0.1,0-0.2-0.1-0.2-0.2
				c0-0.2,0.1-0.2,0.5-0.2c1.3,0,3.1,0.1,3.4,0.1s2-0.1,2.9-0.1c0.3,0,0.5,0.1,0.5,0.2c0,0.1-0.1,0.2-0.2,0.2c-0.2,0-0.4,0-0.7,0.1
				c-0.8,0.1-1,0.6-1.1,1.7C28,16.4,28,17.3,28,21.8V25.9z"/>
		</g>
		<g>
			<path fill="#17202B" d="M59.3,27c0,2.8,0,5.1,0.1,6.4c0.1,0.8,0.3,1.5,1.1,1.6c0.4,0.1,1.1,0.1,1.3,0.1c0.2,0,0.2,0.1,0.2,0.2
				c0,0.1-0.1,0.2-0.5,0.2c-1.6,0-3.5-0.1-3.6-0.1s-2,0.1-2.9,0.1c-0.3,0-0.5-0.1-0.5-0.2c0-0.1,0.1-0.2,0.2-0.2
				c0.3,0,0.6-0.1,0.9-0.1c0.6-0.1,0.7-0.8,0.8-1.6c0.1-1.2,0.1-3.5,0.1-6.4V14.6c-1.4,0-2.9,0-4.3,0.1c-1.8,0-2.5,0.2-3,0.9
				c-0.3,0.5-0.4,0.7-0.5,0.9c-0.1,0.2-0.2,0.3-0.3,0.3c-0.1,0-0.1-0.1-0.1-0.3c0-0.3,0.6-2.8,0.6-3c0.1-0.2,0.2-0.6,0.3-0.6
				c0.2,0,0.5,0.3,1.3,0.4c0.8,0.1,2,0.1,2.3,0.1h11c0.9,0,1.6-0.1,2.1-0.1c0.4-0.1,0.7-0.1,0.8-0.1c0.1,0,0.1,0.2,0.1,0.4
				c0,0.9-0.1,2.9-0.1,3.2c0,0.3-0.1,0.4-0.2,0.4c-0.1,0-0.2-0.1-0.2-0.5c0-0.1,0-0.2,0-0.3c-0.1-0.9-0.8-1.6-3.6-1.6
				c-1.2,0-2.5,0-3.7-0.1V27z"/>
		</g>
		<g>
			<path fill="#17202B" d="M75,21.8c0-4.6,0-5.4-0.1-6.3c-0.1-1-0.3-1.5-1.3-1.7c-0.2-0.1-0.6-0.1-0.8-0.1c-0.2,0-0.4-0.1-0.4-0.2
				c0-0.2,0.1-0.2,0.5-0.2c0.7,0,1.5,0,3.3,0.1c0.2,0,6,0,6.7,0c0.6,0,1.2-0.1,1.3-0.2c0.2-0.1,0.2-0.1,0.3-0.1s0.1,0.1,0.1,0.3
				c0,0.2-0.2,0.6-0.2,1.4c0,0.4-0.1,1-0.1,1.8c0,0.3-0.1,0.5-0.2,0.5c-0.2,0-0.2-0.1-0.2-0.4c0-0.4-0.1-0.7-0.1-1
				c-0.2-0.7-0.8-1-2.1-1.1c-0.5-0.1-3.7-0.1-4-0.1c-0.1,0-0.2,0.1-0.2,0.3v8.1c0,0.2,0,0.3,0.2,0.3c0.4,0,4,0,4.7-0.1
				c0.8-0.1,1.2-0.1,1.5-0.5c0.1-0.2,0.2-0.3,0.4-0.3c0.1,0,0.1,0.1,0.1,0.2s-0.1,0.7-0.2,1.6c-0.1,0.9-0.1,1.6-0.1,2
				c0,0.3-0.1,0.4-0.2,0.4c-0.2,0-0.2-0.2-0.2-0.5c0-0.3,0-0.6-0.1-0.8c-0.1-0.4-0.5-0.8-1.5-1c-0.8-0.1-3.7-0.1-4.2-0.1
				c-0.1,0-0.2,0.1-0.2,0.2V27c0,1,0,4.4,0,5c0.1,1.2,0.2,1.8,1,2.1c0.5,0.2,1.3,0.3,2.4,0.3c0.9,0,1.8,0,2.6-0.3
				c0.9-0.3,1.3-0.9,1.5-2.2c0.1-0.3,0.1-0.4,0.3-0.4c0.2,0,0.2,0.2,0.2,0.4c0,0.2-0.2,2.2-0.4,2.8c-0.2,0.8-0.4,0.8-1.6,0.8
				c-2.2,0-3.1-0.1-4.3-0.1c-1.2,0-2.5-0.1-3.7-0.1c-0.7,0-1.4,0.1-2.2,0.1c-0.3,0-0.5-0.1-0.5-0.2c0-0.1,0.1-0.1,0.3-0.2
				c0.3,0,0.5,0,0.7-0.1c0.6-0.1,1-0.6,1.1-2.8c0-1.1,0.1-2.6,0.1-5.2V21.8z"/>
		</g>
		<g>
			<path fill="#17202B" d="M96.4,27c0,4.3,0.1,6.2,0.6,6.7c0.5,0.5,1.2,0.7,3.5,0.7c1.6,0,2.8,0,3.5-0.9c0.4-0.5,0.7-1.2,0.8-1.8
				c0-0.2,0.1-0.4,0.3-0.4c0.1,0,0.2,0.1,0.2,0.4c0,0.3-0.2,2.1-0.4,2.9c-0.2,0.7-0.3,0.8-1.8,0.8c-2.5,0-5-0.2-7.8-0.2
				c-0.9,0-1.8,0.1-2.9,0.1c-0.3,0-0.5-0.1-0.5-0.2c0-0.1,0.1-0.2,0.2-0.2c0.3,0,0.6-0.1,0.9-0.1c0.6-0.1,0.7-0.8,0.8-1.6
				C94,32.1,94,29.8,94,27v-5.2c0-4.6,0-5.4-0.1-6.3c-0.1-1-0.3-1.5-1.3-1.7c-0.2-0.1-0.7-0.1-1-0.1c-0.1,0-0.2-0.1-0.2-0.2
				c0-0.2,0.1-0.2,0.5-0.2c1.3,0,3.2,0.1,3.3,0.1s2.3-0.1,3.2-0.1c0.3,0,0.5,0.1,0.5,0.2c0,0.1-0.1,0.2-0.2,0.2c-0.2,0-0.6,0-1,0.1
				c-0.8,0.1-1.1,0.6-1.1,1.7c-0.1,0.9-0.1,1.8-0.1,6.3V27z"/>
		</g>
		<g>
			<path fill="#17202B" d="M115.8,26.8c-0.1,0-0.2,0.1-0.3,0.2l-1.8,5.2c-0.3,0.7-0.4,1.4-0.4,2c0,0.6,0.6,0.8,1.1,0.8
				c0.1,0,0.2,0,0.3,0c0.3,0,0.4,0.1,0.4,0.2c0,0.2-0.3,0.2-0.5,0.2c-0.7,0-1.9-0.1-2.2-0.1c-0.3,0-1.9,0.1-3.3,0.1
				c-0.4,0-0.6-0.1-0.6-0.2c0-0.1,0.1-0.2,0.4-0.2c0.2,0,0.5,0,0.7-0.1c1.3-0.2,1.9-1.3,2.5-2.8l6.6-18.2c0.4-1,0.5-1.1,0.6-1.1
				s0.3,0.1,0.6,1.1c0.4,1.1,5,13.2,6.8,17.6c1.1,2.6,1.9,3.1,2.5,3.2c0.4,0.1,0.9,0.2,1.1,0.2c0.2,0,0.3,0,0.3,0.2
				c0,0.2-0.3,0.2-0.6,0.2c-0.4,0-2.6,0-4.6-0.1c-0.6,0-0.9,0-0.9-0.2c0-0.1,0.1-0.2,0.2-0.2c0.2-0.1,0.4-0.3,0.2-0.8l-2.7-7.2
				c-0.1-0.1-0.1-0.2-0.3-0.2H115.8z M121.7,25.8c0.1,0,0.1-0.1,0.1-0.2l-2.8-7.9c-0.1-0.4-0.3-0.4-0.4,0l-2.6,7.9
				c-0.1,0.1,0,0.2,0.1,0.2H121.7z"/>
		</g>
		<g>
			<path fill="#17202B" d="M237.3,31.7c0.1,1.1,0.3,2.7,1.6,3.1c0.8,0.3,1.5,0.3,1.8,0.3c0.1,0,0.3,0,0.3,0.2c0,0.2-0.1,0.2-0.4,0.2
				c-0.6,0-4-0.1-5.1-0.2c-0.7-0.1-0.8-0.1-0.8-0.3c0-0.1,0.1-0.1,0.2-0.2c0.2-0.1,0.2-0.5,0.1-1.1l-1.4-15.3l-7.3,15.4
				c-0.6,1.3-0.7,1.6-1,1.6c-0.2,0-0.4-0.3-0.9-1.3c-0.8-1.4-3.3-6.5-3.4-6.8c-0.3-0.5-3.6-7.8-4-8.5l-1.2,13.8
				c0,0.5-0.1,0.9-0.1,1.4c0,0.7,0.4,1,0.8,1.1c0.5,0.1,0.9,0.1,1.1,0.1s0.3,0.1,0.3,0.1c0,0.2-0.1,0.3-0.4,0.3
				c-1.1,0-2.6-0.1-2.8-0.1c-0.3,0-1.7,0.1-2.5,0.1c-0.3,0-0.5,0-0.5-0.2c0-0.1,0.1-0.2,0.3-0.2c0.2,0,0.4,0,0.9-0.1
				c1-0.2,1-1.2,1.2-2.4l2.1-19c0-0.3,0.1-0.6,0.3-0.6c0.2,0,0.3,0.1,0.4,0.4l9,18.4l8.6-18.4c0.1-0.3,0.2-0.5,0.4-0.5
				c0.2,0,0.3,0.2,0.4,0.8L237.3,31.7z"/>
		</g>
		<g>
			<path fill="#17202B" d="M248,21.8c0-4.6,0-5.4-0.1-6.3c-0.1-1-0.3-1.5-1.3-1.7c-0.2-0.1-0.6-0.1-0.8-0.1c-0.2,0-0.4-0.1-0.4-0.2
				c0-0.2,0.1-0.2,0.5-0.2c0.7,0,1.5,0,3.3,0.1c0.2,0,6,0,6.7,0c0.6,0,1.2-0.1,1.3-0.2c0.2-0.1,0.2-0.1,0.3-0.1s0.1,0.1,0.1,0.3
				c0,0.2-0.2,0.6-0.2,1.4c0,0.4-0.1,1-0.1,1.8c0,0.3-0.1,0.5-0.2,0.5c-0.2,0-0.2-0.1-0.2-0.4c0-0.4-0.1-0.7-0.1-1
				c-0.2-0.7-0.8-1-2.1-1.1c-0.5-0.1-3.7-0.1-4-0.1c-0.1,0-0.2,0.1-0.2,0.3v8.1c0,0.2,0,0.3,0.2,0.3c0.4,0,4,0,4.7-0.1
				c0.8-0.1,1.2-0.1,1.5-0.5c0.1-0.2,0.2-0.3,0.4-0.3c0.1,0,0.1,0.1,0.1,0.2s-0.1,0.7-0.2,1.6c-0.1,0.9-0.1,1.6-0.1,2
				c0,0.3-0.1,0.4-0.2,0.4c-0.2,0-0.2-0.2-0.2-0.5c0-0.3,0-0.6-0.1-0.8c-0.1-0.4-0.5-0.8-1.5-1c-0.8-0.1-3.7-0.1-4.2-0.1
				c-0.1,0-0.2,0.1-0.2,0.2V27c0,1,0,4.4,0,5c0.1,1.2,0.2,1.8,1,2.1c0.5,0.2,1.3,0.3,2.4,0.3c0.9,0,1.8,0,2.6-0.3
				c0.9-0.3,1.3-0.9,1.5-2.2c0.1-0.3,0.1-0.4,0.3-0.4c0.2,0,0.2,0.2,0.2,0.4c0,0.2-0.2,2.2-0.4,2.8c-0.2,0.8-0.4,0.8-1.6,0.8
				c-2.2,0-3.1-0.1-4.3-0.1c-1.2,0-2.5-0.1-3.7-0.1c-0.7,0-1.4,0.1-2.2,0.1c-0.3,0-0.5-0.1-0.5-0.2c0-0.1,0.1-0.1,0.3-0.2
				c0.3,0,0.5,0,0.7-0.1c0.6-0.1,1-0.6,1.1-2.8c0-1.1,0.1-2.6,0.1-5.2V21.8z M256.9,9.2c0.1,0.3,0,0.4-0.1,0.4s-0.7,0.1-1.2,0.2
				c-1.5,0.5-3.2,1.3-4.2,1.8c-0.2,0.1-0.4,0.2-0.5,0.2s-0.2-0.1-0.2-0.1c0-0.1,0.1-0.2,0.2-0.4c0.8-0.8,2.8-2.5,3.6-3
				c0.4-0.3,0.7-0.5,0.8-0.5c0.1,0,0.3,0,0.5,0.2C256.2,8.3,256.6,8.7,256.9,9.2z"/>
		</g>
		<g>
			<path fill="#17202B" d="M267,21.8c0-4.6,0-5.4-0.1-6.3c-0.1-1-0.2-1.5-1.2-1.7c-0.2-0.1-0.7-0.1-1-0.1c-0.2,0-0.3-0.1-0.3-0.2
				c0-0.2,0.1-0.2,0.5-0.2c1.3,0,3.2,0.1,3.3,0.1c0.4,0,2.2-0.1,4-0.1c2.9,0,8.3-0.3,11.7,3.3c1.5,1.5,2.8,4,2.8,7.4
				c0,3.7-1.5,6.5-3.2,8.3c-1.3,1.3-3.9,3.4-8.9,3.4c-1.3,0-2.8-0.1-4.1-0.2c-1.3-0.1-2.3-0.2-2.4-0.2c-0.1,0-0.6,0-1.2,0
				c-0.6,0-1.3,0.1-1.7,0.1c-0.3,0-0.5-0.1-0.5-0.2c0-0.1,0.1-0.2,0.3-0.2c0.3,0,0.6-0.1,0.8-0.1c0.6-0.1,0.7-0.8,0.8-1.6
				c0.1-1.2,0.1-3.5,0.1-6.4V21.8z M269.5,25c0,3.1,0,5.8,0.1,6.4c0,0.7,0.1,1.9,0.3,2.2c0.4,0.6,1.5,1.2,5,1.2c2.7,0,5.2-1,7-2.7
				c1.5-1.5,2.3-4.3,2.3-7c0-3.7-1.6-6.1-2.8-7.4c-2.8-2.9-6.1-3.3-9.6-3.3c-0.6,0-1.7,0.1-1.9,0.2c-0.3,0.1-0.4,0.3-0.4,0.6
				c0,1,0,4,0,6.2V25z"/>
		</g>
		<g>
			<path fill="#17202B" d="M295.2,21.8c0-4.6,0-5.4-0.1-6.3c-0.1-1-0.4-1.5-1-1.6c-0.3-0.1-0.7-0.1-0.9-0.1c-0.1,0-0.2-0.1-0.2-0.2
				c0-0.2,0.1-0.2,0.5-0.2c1,0,2.8,0.1,3,0.1s2-0.1,2.9-0.1c0.3,0,0.5,0.1,0.5,0.2c0,0.1-0.1,0.2-0.2,0.2c-0.2,0-0.4,0-0.7,0.1
				c-0.8,0.1-1,0.6-1.1,1.7c-0.1,0.9-0.1,1.8-0.1,6.3V27c0,2.8,0,5.1,0.1,6.4c0.1,0.8,0.3,1.5,1.1,1.6c0.4,0.1,1,0.1,1.2,0.1
				c0.3,0,0.4,0.1,0.4,0.2c0,0.1-0.1,0.2-0.4,0.2c-1.6,0-3.5-0.1-3.6-0.1s-2,0.1-2.9,0.1c-0.3,0-0.5-0.1-0.5-0.2
				c0-0.1,0.1-0.2,0.3-0.2c0.2,0,0.5,0,0.8-0.1c0.6-0.1,0.8-0.8,0.9-1.6c0.1-1.2,0.1-3.5,0.1-6.4V21.8z"/>
		</g>
		<g>
			<path fill="#17202B" d="M309.6,32.7c-2.8-2.5-3.5-5.9-3.5-8.7c0-2,0.7-5.4,3.3-8c1.8-1.8,4.4-3.1,8.9-3.1c1.2,0,2.8,0.1,4.2,0.4
				c1.1,0.2,2,0.3,3.1,0.4c0.2,0,0.3,0.1,0.3,0.3c0,0.2-0.1,0.6-0.1,1.6c-0.1,1-0.1,2.6-0.1,3c0,0.4-0.1,0.6-0.3,0.6
				c-0.2,0-0.2-0.2-0.2-0.6c0-1.1-0.5-2.3-1.2-3c-1-0.9-3.3-1.7-5.9-1.7c-3.9,0-5.7,1.1-6.7,2.1c-2.1,2-2.6,4.7-2.6,7.6
				c0,5.6,4.3,10.7,10.6,10.7c2.2,0,3.9-0.3,5.1-1.5c0.6-0.6,1-1.9,1.1-2.5c0.1-0.3,0.1-0.4,0.3-0.4c0.1,0,0.2,0.2,0.2,0.4
				c0,0.2-0.4,2.8-0.6,3.7c-0.2,0.6-0.2,0.6-0.8,0.8c-1.2,0.5-3.4,0.7-5.3,0.7C314.8,35.9,311.9,34.8,309.6,32.7z"/>
		</g>
		<g>
			<path fill="#17202B" d="M336.6,26.8c-0.1,0-0.2,0.1-0.3,0.2l-1.8,5.2c-0.3,0.7-0.4,1.4-0.4,2c0,0.6,0.6,0.8,1.1,0.8
				c0.1,0,0.2,0,0.3,0c0.3,0,0.4,0.1,0.4,0.2c0,0.2-0.3,0.2-0.5,0.2c-0.7,0-1.9-0.1-2.2-0.1c-0.3,0-1.9,0.1-3.3,0.1
				c-0.4,0-0.6-0.1-0.6-0.2c0-0.1,0.1-0.2,0.4-0.2c0.2,0,0.5,0,0.7-0.1c1.3-0.2,1.9-1.3,2.5-2.8l6.6-18.2c0.4-1,0.5-1.1,0.6-1.1
				s0.3,0.1,0.6,1.1c0.4,1.1,5,13.2,6.8,17.6c1.1,2.6,1.9,3.1,2.5,3.2c0.4,0.1,0.9,0.2,1.1,0.2c0.2,0,0.3,0,0.3,0.2
				c0,0.2-0.3,0.2-0.6,0.2c-0.4,0-2.6,0-4.6-0.1c-0.6,0-0.9,0-0.9-0.2c0-0.1,0.1-0.2,0.2-0.2c0.2-0.1,0.4-0.3,0.2-0.8l-2.7-7.2
				c-0.1-0.1-0.1-0.2-0.3-0.2H336.6z M342.5,25.8c0.1,0,0.1-0.1,0.1-0.2l-2.8-7.9c-0.1-0.4-0.3-0.4-0.4,0l-2.6,7.9
				c-0.1,0.1,0,0.2,0.1,0.2H342.5z"/>
		</g>
	</g>
	<g>
		<path fill="#17202B" d="M113.2,55.5h4.7v0.8h-3.8v2.5h3.6v0.8h-3.6v3.4h-0.9V55.5z"/>
		<path fill="#17202B" d="M124.1,63.3c-0.6,0-1.1-0.1-1.6-0.3c-0.5-0.2-0.9-0.5-1.3-0.8s-0.6-0.8-0.8-1.3c-0.2-0.5-0.3-1-0.3-1.6
			c0-0.6,0.1-1.1,0.3-1.6c0.2-0.5,0.5-0.9,0.8-1.3s0.8-0.6,1.3-0.8c0.5-0.2,1-0.3,1.6-0.3c0.6,0,1.1,0.1,1.6,0.3
			c0.5,0.2,0.9,0.5,1.3,0.8s0.6,0.8,0.8,1.3c0.2,0.5,0.3,1,0.3,1.6c0,0.6-0.1,1.1-0.3,1.6c-0.2,0.5-0.5,0.9-0.8,1.3
			s-0.8,0.6-1.3,0.8C125.2,63.2,124.7,63.3,124.1,63.3z M124.1,62.5c0.4,0,0.9-0.1,1.2-0.2c0.4-0.2,0.7-0.4,1-0.7s0.5-0.6,0.6-1
			c0.1-0.4,0.2-0.8,0.2-1.2c0-0.4-0.1-0.8-0.2-1.2c-0.1-0.4-0.4-0.7-0.6-1s-0.6-0.5-1-0.7c-0.4-0.2-0.8-0.2-1.2-0.2
			c-0.4,0-0.9,0.1-1.2,0.2c-0.4,0.2-0.7,0.4-1,0.7s-0.5,0.6-0.6,1c-0.1,0.4-0.2,0.8-0.2,1.2c0,0.4,0.1,0.8,0.2,1.2
			c0.1,0.4,0.4,0.7,0.6,1s0.6,0.5,1,0.7C123.3,62.4,123.7,62.5,124.1,62.5z"/>
		<path fill="#17202B" d="M131,55.5h1.9c0.4,0,0.7,0,1.1,0.1c0.4,0,0.7,0.1,1,0.3s0.5,0.4,0.7,0.6s0.3,0.7,0.3,1.1
			c0,0.6-0.2,1-0.5,1.4s-0.8,0.6-1.4,0.7l2.2,3.5h-1.1l-2.1-3.4h-1.2v3.4H131V55.5z M131.9,58.8h0.8c0.3,0,0.5,0,0.8,0
			s0.5-0.1,0.7-0.1c0.2-0.1,0.4-0.2,0.6-0.4c0.1-0.2,0.2-0.4,0.2-0.7c0-0.3-0.1-0.5-0.2-0.7c-0.1-0.2-0.2-0.3-0.4-0.4
			c-0.2-0.1-0.4-0.1-0.6-0.2c-0.2,0-0.4,0-0.7,0h-1.3V58.8z"/>
		<path fill="#17202B" d="M139,55.5h4.8v0.8h-3.9v2.4h3.6v0.8h-3.6v2.7h4.1v0.8h-5V55.5z"/>
		<path fill="#17202B" d="M146.7,55.5h1.1l4.4,6.3h0v-6.3h0.9v7.6h-1.1l-4.4-6.3h0v6.3h-0.9V55.5z"/>
		<path fill="#17202B" d="M160.1,56.8c-0.2-0.2-0.4-0.4-0.6-0.5c-0.3-0.1-0.5-0.2-0.8-0.2c-0.2,0-0.4,0-0.6,0.1
			c-0.2,0-0.4,0.1-0.5,0.2s-0.3,0.2-0.4,0.4c-0.1,0.2-0.1,0.4-0.1,0.6c0,0.2,0,0.3,0.1,0.5s0.1,0.3,0.3,0.4c0.1,0.1,0.3,0.2,0.5,0.3
			c0.2,0.1,0.5,0.2,0.8,0.3c0.3,0.1,0.6,0.2,0.9,0.3s0.5,0.2,0.7,0.4s0.4,0.4,0.5,0.6s0.2,0.6,0.2,0.9c0,0.4-0.1,0.7-0.2,1
			c-0.2,0.3-0.4,0.5-0.6,0.7c-0.2,0.2-0.5,0.3-0.9,0.4c-0.3,0.1-0.7,0.1-1,0.1c-0.2,0-0.4,0-0.7-0.1c-0.2,0-0.4-0.1-0.6-0.2
			c-0.2-0.1-0.4-0.2-0.6-0.3c-0.2-0.1-0.3-0.3-0.5-0.5l0.8-0.6c0.2,0.3,0.4,0.5,0.7,0.6c0.3,0.1,0.6,0.2,0.9,0.2
			c0.2,0,0.4,0,0.6-0.1s0.4-0.1,0.5-0.3s0.3-0.2,0.4-0.4s0.2-0.4,0.2-0.6c0-0.2,0-0.4-0.1-0.6c-0.1-0.1-0.2-0.3-0.4-0.4
			c-0.2-0.1-0.4-0.2-0.6-0.3c-0.3-0.1-0.5-0.2-0.9-0.3c-0.3-0.1-0.5-0.2-0.8-0.3c-0.2-0.1-0.4-0.2-0.6-0.4c-0.2-0.2-0.3-0.4-0.4-0.6
			c-0.1-0.2-0.1-0.5-0.1-0.8c0-0.4,0.1-0.7,0.2-1c0.1-0.3,0.3-0.5,0.6-0.7c0.2-0.2,0.5-0.3,0.8-0.4c0.3-0.1,0.6-0.1,1-0.1
			c0.4,0,0.8,0.1,1.2,0.2s0.7,0.4,1,0.7L160.1,56.8z"/>
		<path fill="#17202B" d="M163.9,55.5h4.8v0.8h-3.9v2.4h3.6v0.8h-3.6v2.7h4.1v0.8h-5V55.5z"/>
		<path fill="#17202B" d="M176.1,55.5h2.3c0.4,0,0.7,0,1,0.1c0.3,0.1,0.6,0.2,0.9,0.3c0.2,0.2,0.4,0.4,0.6,0.6
			c0.1,0.3,0.2,0.6,0.2,1c0,0.4-0.1,0.8-0.2,1c-0.2,0.3-0.4,0.5-0.6,0.6c-0.2,0.2-0.5,0.3-0.8,0.3c-0.3,0.1-0.6,0.1-0.8,0.1H177v3.4
			h-0.9V55.5z M177,58.8h1.5c0.5,0,0.8-0.1,1.1-0.3c0.3-0.2,0.4-0.5,0.4-1c0-0.4-0.1-0.7-0.4-1c-0.3-0.2-0.7-0.3-1.1-0.3H177V58.8z"
			/>
		<path fill="#17202B" d="M183.9,55.5h1.9c0.4,0,0.7,0,1.1,0.1c0.4,0,0.7,0.1,1,0.3s0.5,0.4,0.7,0.6s0.3,0.7,0.3,1.1
			c0,0.6-0.2,1-0.5,1.4s-0.8,0.6-1.4,0.7l2.2,3.5H188l-2.1-3.4h-1.2v3.4h-0.9V55.5z M184.8,58.8h0.8c0.3,0,0.5,0,0.8,0
			s0.5-0.1,0.7-0.1c0.2-0.1,0.4-0.2,0.6-0.4c0.1-0.2,0.2-0.4,0.2-0.7c0-0.3-0.1-0.5-0.2-0.7c-0.1-0.2-0.2-0.3-0.4-0.4
			c-0.2-0.1-0.4-0.1-0.6-0.2c-0.2,0-0.4,0-0.7,0h-1.3V58.8z"/>
		<path fill="#17202B" d="M191.9,55.5h0.9v7.6h-0.9V55.5z"/>
		<path fill="#17202B" d="M195,55.5h1l2.3,6.3h0l2.4-6.3h1l-3,7.6h-0.9L195,55.5z"/>
		<path fill="#17202B" d="M206,55.5h0.9l3.2,7.6h-1.1l-0.8-1.9h-3.8l-0.8,1.9h-1L206,55.5z M206.4,56.7L206.4,56.7l-1.6,3.7h3.1
			L206.4,56.7z"/>
		<path fill="#17202B" d="M212.4,55.5h2.9c0.3,0,0.5,0,0.8,0.1c0.3,0.1,0.6,0.1,0.8,0.3c0.3,0.1,0.5,0.3,0.8,0.5s0.5,0.4,0.7,0.7
			c0.2,0.3,0.3,0.6,0.5,1c0.1,0.4,0.2,0.8,0.2,1.3s-0.1,0.9-0.2,1.3c-0.1,0.4-0.3,0.7-0.5,1c-0.2,0.3-0.4,0.5-0.7,0.7
			s-0.5,0.4-0.8,0.5c-0.3,0.1-0.6,0.2-0.8,0.3c-0.3,0.1-0.5,0.1-0.8,0.1h-2.9V55.5z M213.3,62.3h1.7c0.4,0,0.8-0.1,1.2-0.2
			c0.4-0.1,0.7-0.3,1-0.5c0.3-0.2,0.5-0.5,0.6-0.9c0.2-0.4,0.2-0.8,0.2-1.3c0-0.5-0.1-1-0.2-1.3c-0.2-0.4-0.4-0.7-0.6-0.9
			c-0.3-0.2-0.6-0.4-1-0.5c-0.4-0.1-0.8-0.2-1.2-0.2h-1.7V62.3z"/>
		<path fill="#17202B" d="M225.5,63.3c-0.6,0-1.1-0.1-1.6-0.3c-0.5-0.2-0.9-0.5-1.3-0.8s-0.6-0.8-0.8-1.3c-0.2-0.5-0.3-1-0.3-1.6
			c0-0.6,0.1-1.1,0.3-1.6c0.2-0.5,0.5-0.9,0.8-1.3s0.8-0.6,1.3-0.8c0.5-0.2,1-0.3,1.6-0.3c0.6,0,1.1,0.1,1.6,0.3
			c0.5,0.2,0.9,0.5,1.3,0.8s0.6,0.8,0.8,1.3c0.2,0.5,0.3,1,0.3,1.6c0,0.6-0.1,1.1-0.3,1.6c-0.2,0.5-0.5,0.9-0.8,1.3
			s-0.8,0.6-1.3,0.8C226.6,63.2,226,63.3,225.5,63.3z M225.5,62.5c0.4,0,0.9-0.1,1.2-0.2c0.4-0.2,0.7-0.4,1-0.7s0.5-0.6,0.6-1
			c0.1-0.4,0.2-0.8,0.2-1.2c0-0.4-0.1-0.8-0.2-1.2c-0.1-0.4-0.4-0.7-0.6-1s-0.6-0.5-1-0.7c-0.4-0.2-0.8-0.2-1.2-0.2
			c-0.4,0-0.9,0.1-1.2,0.2c-0.4,0.2-0.7,0.4-1,0.7s-0.5,0.6-0.6,1c-0.1,0.4-0.2,0.8-0.2,1.2c0,0.4,0.1,0.8,0.2,1.2
			c0.1,0.4,0.4,0.7,0.6,1s0.6,0.5,1,0.7C224.6,62.4,225,62.5,225.5,62.5z"/>
	</g>
	<g>
		<g>
			<path fill-rule="evenodd" clip-rule="evenodd" fill="#17202B" d="M169,19.9c0-6.7,0.3-16.3-6-16c-8.4,0.5-13.9,5-15.7,12.3
				c-0.4,1.6-0.6,3.7-0.5,5.8c0.6,8.9,4.5,16.7,10.2,21.2c3.6-0.5,6.8-0.8,10.9-0.8C169.5,36.2,169,28.1,169,19.9L169,19.9z
				 M196.3,19.8c-0.9-8.6-5.7-14.9-14.3-16c-0.7-0.1-1.6-0.2-2.4-0.1c-6,0.3-6.4,5.8-6.4,11.7c0,9.9-0.2,18.8,1.5,26.8
				c4,0.2,8.5,0.3,12.6,0.9C192.2,37.9,197.3,29.6,196.3,19.8L196.3,19.8z M188.8,43.4c3.3,0.4,7.1,0.9,10.4,1.7
				c0.8,0.2,2.7,0.3,2.1,1.7c-0.9,0.6-1.5-0.3-2.2-0.6c-1.4-0.5-3.5-0.7-5.3-1c-12.1-2-27.1-2.4-39.9-0.5c-3.2,0.5-6.8,0.9-9.1,1.8
				c-0.6,0.3-1.2,1.2-2,0.5c-0.5-1.4,1.2-1.6,2.1-1.8c3.2-0.8,7.2-1.3,10.5-1.8c-3.3-2.5-6.7-4.8-9-8.2c-1.8-2.6-3.4-5.9-3.9-9.6
				c-1.4-10.4,4-16.3,10.5-19.9c7.4-4.1,19.6-4.3,29.7-2.9c8.1,1.1,13.8,6,16.8,12.4c4.1,8.8,0,17.8-5.1,23.1
				C192.5,40.2,190.9,41.7,188.8,43.4L188.8,43.4z"/>
		</g>
	</g>
</g>
</svg>
